<?xml version="1.0" standalone="no"?>
<!DOCTYPE svg PUBLIC "-//W3C//DTD SVG 20010904//EN"
 "http://www.w3.org/TR/2001/REC-SVG-20010904/DTD/svg10.dtd">
<svg version="1.0" xmlns="http://www.w3.org/2000/svg"
 width="512.000000pt" height="512.000000pt" viewBox="0 0 512.000000 512.000000"
 preserveAspectRatio="xMidYMid meet">
<metadata>
Created by potrace 1.16, written by Peter Selinger 2001-2019
</metadata>
<g transform="translate(0.000000,512.000000) scale(0.100000,-0.100000)"
fill="#000000" stroke="none">
<path d="M83 5050 c-17 -6 -43 -24 -57 -41 -45 -53 -31 -148 28 -182 14 -8
104 -14 276 -17 244 -5 257 -7 305 -30 56 -27 116 -83 140 -131 9 -17 187
-546 396 -1174 l379 -1143 -31 -69 c-45 -100 -62 -177 -62 -278 0 -254 153
-460 398 -538 l70 -22 1210 0 1210 0 32 23 c68 48 67 148 -1 202 -17 13 -174
16 -1230 20 -1205 5 -1211 5 -1257 26 -25 12 -61 36 -82 53 -43 38 -93 134
-103 196 -12 80 47 255 85 255 68 0 2518 263 2566 275 218 57 384 211 461 427
27 78 304 1256 304 1295 0 34 -6 46 -35 71 -22 20 -49 33 -77 36 -24 3 -902
17 -1953 32 -1050 14 -1913 29 -1916 32 -3 4 -27 75 -53 157 -69 216 -104 285
-190 370 -73 72 -146 115 -241 143 -61 17 -522 27 -572 12z m3111 -965 c901
-13 1641 -27 1644 -29 4 -5 -221 -950 -254 -1064 -34 -115 -141 -229 -254
-267 -53 -18 -2551 -279 -2561 -267 -6 6 -286 849 -474 1430 l-73 222 167 0
c91 0 904 -11 1805 -25z"/>
<path d="M1496 1125 c-177 -45 -327 -193 -383 -379 -23 -75 -20 -224 6 -307
50 -159 191 -299 351 -350 76 -24 228 -29 300 -9 185 51 337 204 385 390 23
86 16 231 -14 315 -52 147 -179 274 -328 327 -76 27 -234 34 -317 13z m236
-251 c58 -19 120 -73 155 -131 21 -36 27 -63 31 -123 4 -68 1 -85 -21 -131
-99 -212 -372 -236 -503 -46 -101 147 -41 351 126 426 55 25 148 27 212 5z"/>
<path d="M3753 1125 c-91 -25 -171 -72 -243 -144 -339 -339 -100 -914 380
-914 256 0 466 167 525 417 66 278 -111 568 -392 641 -71 19 -201 18 -270 0z
m265 -266 c61 -30 102 -71 138 -139 29 -54 26 -181 -4 -240 -115 -220 -410
-221 -523 -1 -13 26 -25 69 -27 102 -16 223 216 378 416 278z"/>
</g>
</svg>
