<svg height="502pt" viewBox="0 -11 502.4 502" width="502pt" xmlns="http://www.w3.org/2000/svg"><path d="m123.199219 80.199219h256v40h16v-96c0-13.597657-10.398438-24-24-24h-240c-13.597657 0-24 10.402343-24 24v288h16zm8-64h240c4.800781 0 8 3.199219 8 8v40h-256v-40c0-4.800781 3.199219-8 8-8zm0 0"/><path d="m379.199219 400.199219h-256v-40h-16v96c0 13.601562 10.402343 24 24 24h240c13.601562 0 24-10.398438 24-24v-288h-16zm-8 64h-240c-4.800781 0-8-3.199219-8-8v-40h256v40c0 4.800781-3.199219 8-8 8zm0 0"/><path d="m235.199219 32.199219h32v16h-32zm0 0"/><path d="m448.800781 90.601562-11.199219 11.199219 34.398438 34.398438h-220.800781c-57.597657 0-104 46.402343-104 104 0 36 18.402343 69.601562 48.800781 88h-165.601562l34.402343-34.398438-11.199219-11.199219-53.601562 53.597657 53.601562 53.601562 11.199219-11.199219-34.402343-34.402343h220.800781c57.601562 0 104-46.398438 104-104 0-36-18.398438-69.597657-48.800781-88h165.601562l-34.398438 34.402343 11.199219 11.199219 53.597657-53.601562zm-109.601562 149.597657c0 48.800781-39.199219 88-88 88s-88-39.199219-88-88 39.199219-88 88-88 88 39.199219 88 88zm0 0"/><path d="m243.199219 288.199219v16h16v-16c8.800781 0 16-7.199219 16-16v-24c0-8.800781-7.199219-16-16-16h-16v-24h16v8h16v-8c0-8.800781-7.199219-16-16-16v-16h-16v16c-8.800781 0-16 7.199219-16 16v24c0 8.800781 7.199219 16 16 16h16v24h-16v-8h-16v8c0 8.800781 7.199219 16 16 16zm0 0"/><path d="m331.199219 336.199219h24v16h-24zm0 0"/><path d="m283.199219 360.199219h24v16h-24zm0 0"/><path d="m179.199219 112.199219h24v16h-24zm0 0"/><path d="m139.199219 96.199219h24v16h-24zm0 0"/><path d="m227.199219 432.199219h48v16h-48zm0 0"/><path d="m196.800781 288.199219 12-10.398438c-18.402343-20.800781-18.402343-52.800781 0-74.402343l-12-11.199219c-23.199219 27.199219-23.199219 68.800781 0 96zm0 0"/><path d="m305.601562 288.199219c24-27.199219 24-68 0-95.199219l-12 10.398438c18.398438 20.800781 18.398438 52.800781 0 74.402343zm0 0"/></svg>