<?xml version="1.0" standalone="no"?>
<!DOCTYPE svg PUBLIC "-//W3C//DTD SVG 20010904//EN"
 "http://www.w3.org/TR/2001/REC-SVG-20010904/DTD/svg10.dtd">
<svg version="1.0" xmlns="http://www.w3.org/2000/svg"
 width="512.000000pt" height="512.000000pt" viewBox="0 0 512.000000 512.000000"
 preserveAspectRatio="xMidYMid meet">

<g transform="translate(0.000000,512.000000) scale(0.100000,-0.100000)"
fill="#000000" stroke="none">
<path d="M2470 4975 l0 -145 -820 0 -820 0 0 -565 0 -565 1730 0 1730 0 0 565
0 565 -760 0 -760 0 0 145 0 145 -150 0 -150 0 0 -145z m-971 -501 c183 -76
187 -336 7 -420 -130 -61 -294 -9 -350 111 -21 43 -24 135 -6 180 48 126 212
186 349 129z m1856 -3 c22 -10 49 -28 59 -40 20 -22 20 -22 -24 -66 l-43 -44
-29 24 c-70 59 -178 14 -178 -74 0 -75 41 -121 107 -121 27 0 70 22 84 43 9
14 100 -64 97 -82 -2 -9 -25 -29 -51 -45 -82 -50 -209 -49 -289 4 -112 74
-133 241 -45 346 66 78 206 102 312 55z m-1230 -41 l0 -55 -107 -3 -108 -3 0
-34 0 -34 93 -3 92 -3 3 -57 3 -58 -96 0 -95 0 0 -70 0 -70 -75 0 -75 0 0 225
0 225 183 -2 182 -3 0 -55z m475 0 l0 -60 -105 0 -105 0 0 -35 0 -34 93 -3 92
-3 3 -57 3 -58 -96 0 -95 0 0 -70 0 -70 -75 0 -75 0 0 225 0 225 180 0 180 0
0 -60z m268 -167 l2 -223 -80 0 -80 0 0 218 c0 120 3 222 7 226 4 4 39 5 78 4
l70 -3 3 -222z m1042 167 l0 -60 -110 0 -110 0 0 -25 c0 -25 0 -25 95 -25 l95
0 0 -55 0 -55 -95 0 -95 0 0 -30 0 -30 115 0 115 0 0 -55 0 -55 -190 0 -190 0
0 218 c0 120 3 222 7 225 3 4 87 7 185 7 l178 0 0 -60z"/>
<path d="M1318 4340 c-28 -29 -30 -35 -26 -86 6 -66 28 -93 85 -101 76 -10
130 69 103 151 -24 72 -107 91 -162 36z"/>
<path d="M1480 1700 l0 -1700 475 0 475 0 0 305 0 305 150 0 150 0 0 -305 0
-305 450 0 450 0 0 1700 0 1700 -1075 0 -1075 0 0 -1700z m648 1173 l-3 -148
-147 -3 -148 -3 0 151 0 150 150 0 151 0 -3 -147z m600 0 l-3 -148 -147 -3
-148 -3 0 151 0 150 150 0 151 0 -3 -147z m600 0 l-3 -148 -147 -3 -148 -3 0
151 0 150 150 0 151 0 -3 -147z m-1200 -600 l-3 -148 -147 -3 -148 -3 0 151 0
150 150 0 151 0 -3 -147z m600 0 l-3 -148 -147 -3 -148 -3 0 151 0 150 150 0
151 0 -3 -147z m600 0 l-3 -148 -147 -3 -148 -3 0 151 0 150 150 0 151 0 -3
-147z m-1200 -590 l-3 -148 -147 -3 -148 -3 0 151 0 150 150 0 151 0 -3 -147z
m600 0 l-3 -148 -147 -3 -148 -3 0 151 0 150 150 0 151 0 -3 -147z m600 0 l-3
-148 -147 -3 -148 -3 0 151 0 150 150 0 151 0 -3 -147z m-1200 -600 l-3 -148
-147 -3 -148 -3 0 151 0 150 150 0 151 0 -3 -147z m600 0 l-3 -148 -147 -3
-148 -3 0 151 0 150 150 0 151 0 -3 -147z m600 0 l-3 -148 -147 -3 -148 -3 0
151 0 150 150 0 151 0 -3 -147z"/>
<path d="M0 2870 l0 -150 150 0 150 0 0 -1360 0 -1360 440 0 440 0 -2 458 -3
457 -132 3 -133 3 0 149 0 150 135 0 135 0 0 150 0 150 -135 0 -135 0 0 150 0
149 133 3 132 3 3 148 3 147 -136 0 -135 0 0 150 0 149 133 3 132 3 3 298 2
297 -590 0 -590 0 0 -150z"/>
<path d="M3930 2720 l0 -300 140 0 140 0 0 -150 0 -150 -140 0 -140 0 0 -150
0 -150 140 0 140 0 0 -150 0 -150 -140 0 -140 0 0 -150 0 -150 140 0 140 0 0
-150 0 -150 -140 0 -140 0 0 -460 0 -460 445 0 445 0 0 1360 0 1360 150 0 150
0 0 150 0 150 -595 0 -595 0 0 -300z"/>
</g>
</svg>
