<?xml version="1.0" standalone="no"?>
<!DOCTYPE svg PUBLIC "-//W3C//DTD SVG 20010904//EN"
 "http://www.w3.org/TR/2001/REC-SVG-20010904/DTD/svg10.dtd">
<svg version="1.0" xmlns="http://www.w3.org/2000/svg"
 width="500.000000pt" height="500.000000pt" viewBox="0 0 500.000000 500.000000"
 preserveAspectRatio="xMidYMid meet">
<metadata>
Created by potrace 1.16, written by Peter Selinger 2001-2019
</metadata>
<g transform="translate(0.000000,500.000000) scale(0.100000,-0.100000)"
fill="#000000" color="#7D879C" stroke="none">
<path d="M2770 4993 c-138 -24 -285 -85 -403 -168 -149 -104 -277 -295 -328
-490 -32 -123 -31 -302 3 -420 48 -169 117 -286 243 -410 91 -89 180 -147 300
-192 105 -41 176 -53 305 -53 134 0 198 12 313 58 260 105 435 298 523 577 27
83 29 102 28 240 0 143 -2 155 -33 245 -40 114 -82 194 -155 293 -66 89 -114
130 -242 206 -83 48 -212 96 -304 110 -64 11 -200 13 -250 4z m497 -538 c43
-38 92 -83 110 -100 l32 -30 -120 -125 c-66 -69 -132 -141 -147 -160 -15 -19
-99 -108 -187 -198 -188 -192 -203 -199 -307 -157 -10 4 -61 59 -114 124 -53
64 -106 125 -118 137 -11 11 -34 34 -49 51 l-28 30 115 97 c63 53 119 96 125
96 5 0 27 -21 48 -47 21 -26 46 -57 55 -67 10 -11 20 -28 24 -38 3 -11 11 -18
18 -16 14 3 352 355 411 428 22 27 43 48 47 47 4 -1 42 -33 85 -72z"/>
<path d="M362 4743 l3 -148 260 -3 261 -2 27 -113 c14 -61 47 -195 72 -297 25
-102 52 -221 59 -265 8 -44 19 -98 25 -120 6 -22 40 -159 75 -305 36 -146 95
-386 131 -535 142 -580 173 -712 180 -755 3 -25 27 -129 52 -231 l45 -186 -69
-65 c-37 -36 -86 -81 -108 -99 -22 -19 -58 -51 -80 -71 -22 -20 -57 -49 -79
-65 -40 -30 -201 -170 -386 -337 -103 -92 -137 -174 -127 -302 7 -95 42 -172
104 -231 109 -101 170 -113 583 -113 146 0 268 0 272 0 4 0 -3 -21 -15 -47
-16 -36 -21 -68 -21 -128 -1 -70 3 -87 29 -133 39 -71 94 -125 163 -159 79
-39 191 -39 274 -1 66 31 130 93 166 163 35 67 37 186 5 258 -12 26 -19 47
-15 47 4 0 284 0 622 0 338 0 618 0 623 0 4 0 -3 -19 -15 -43 -31 -58 -33
-204 -3 -257 49 -86 88 -129 149 -162 56 -30 68 -33 151 -33 74 0 98 4 137 23
56 28 134 110 167 176 21 42 23 58 19 134 -3 48 -11 101 -19 117 -7 17 -13 34
-13 38 -1 5 122 8 273 7 193 0 277 3 287 11 11 9 14 45 14 155 l0 144 -1799 0
c-1623 0 -1801 2 -1815 16 -21 20 -20 53 2 87 19 28 96 97 155 139 43 30 247
205 272 233 24 28 155 139 210 179 22 17 67 54 101 83 l61 53 1281 2 c1266 3
1282 3 1301 23 19 19 21 42 31 605 5 322 13 700 17 841 6 247 5 257 -14 276
-16 16 -61 26 -229 52 -115 18 -231 37 -257 42 -93 18 -98 16 -168 -68 -213
-255 -521 -406 -859 -420 -154 -6 -255 8 -405 58 -322 107 -551 308 -690 604
-31 66 -60 127 -64 135 -8 16 -20 19 -235 53 l-140 22 -73 280 c-40 154 -96
368 -124 475 -27 107 -57 209 -66 226 -9 18 -34 43 -57 58 l-40 26 -338 0
-339 0 3 -147z"/>
</g>
</svg>
